{
  "accessors": [
    {
      "bufferView": 2,
      "componentType": 5126,
      "count": 20780,
      "max": [
        1.3492385149002075,
        4.872049331665039,
        0.41571471095085144
      ],
      "min": [
        -1.3611629009246826,
        -9.80494499206543,
        -1.0737887620925903
      ],
      "type": "VEC3"
    },
    {
      "bufferView": 2,
      "byteOffset": 249360,
      "componentType": 5126,
      "count": 20780,
      "max": [
        1.0,
        1.0,
        1.0
      ],
      "min": [
        -1.0,
        -1.0,
        -1.0
      ],
      "type": "VEC3"
    },
    {
      "bufferView": 3,
      "componentType": 5126,
      "count": 20780,
      "max": [
        1.0,
        1.0,
        1.0,
        1.0
      ],
      "min": [
        -1.0,
        -1.0,
        -1.0,
        -1.0
      ],
      "type": "VEC4"
    },
    {
      "bufferView": 1,
      "componentType": 5126,
      "count": 20780,
      "max": [
        0.9706332683563232,
        0.9980522990226746
      ],
      "min": [
        0.0007224219152703881,
        0.0019476593006402254
      ],
      "type": "VEC2"
    },
    {
      "bufferView": 1,
      "byteOffset": 166240,
      "componentType": 5126,
      "count": 20780,
      "max": [
        0.9706332683563232,
        0.9980522990226746
      ],
      "min": [
        0.0007224219152703881,
        0.0019476593006402254
      ],
      "type": "VEC2"
    },
    {
      "bufferView": 1,
      "byteOffset": 332480,
      "componentType": 5126,
      "count": 20780,
      "max": [
        0.9706332683563232,
        0.9980522990226746
      ],
      "min": [
        0.0007224219152703881,
        0.0019476593006402254
      ],
      "type": "VEC2"
    },
    {
      "bufferView": 0,
      "componentType": 5125,
      "count": 41982,
      "type": "SCALAR"
    }
  ],
  "asset": {
    "extras": {
      "author": "Arsen Ismailov (https://sketchfab.com/fdgasd7)",
      "license": "CC-BY-4.0 (http://creativecommons.org/licenses/by/4.0/)",
      "source": "https://sketchfab.com/3d-models/flatbed-trailer-76998b4d82604bb7996768835dcaa276",
      "title": "Flatbed Trailer"
    },
    "generator": "Sketchfab-15.36.0",
    "version": "2.0"
  },
  "bufferViews": [
    {
      "buffer": 0,
      "byteLength": 167928,
      "name": "floatBufferViews",
      "target": 34963
    },
    {
      "buffer": 0,
      "byteLength": 498720,
      "byteOffset": 167928,
      "byteStride": 8,
      "name": "floatBufferViews",
      "target": 34962
    },
    {
      "buffer": 0,
      "byteLength": 498720,
      "byteOffset": 666648,
      "byteStride": 12,
      "name": "floatBufferViews",
      "target": 34962
    },
    {
      "buffer": 0,
      "byteLength": 332480,
      "byteOffset": 1165368,
      "byteStride": 16,
      "name": "floatBufferViews",
      "target": 34962
    }
  ],
  "buffers": [
    {
      "byteLength": 1497848,
      "uri": "scene.bin"
    }
  ],
  "images": [
    {
      "uri": "textures/TrailerFlatBed_baseColor.jpeg"
    },
    {
      "uri": "textures/TrailerFlatBed_metallicRoughness.png"
    },
    {
      "uri": "textures/TrailerFlatBed_normal.png"
    }
  ],
  "materials": [
    {
      "doubleSided": true,
      "name": "TrailerFlatBed",
      "normalTexture": {
        "index": 2
      },
      "pbrMetallicRoughness": {
        "baseColorTexture": {
          "index": 0
        },
        "metallicRoughnessTexture": {
          "index": 1
        }
      }
    }
  ],
  "meshes": [
    {
      "name": "FlatBedTrailer_TrailerFlatBed_0",
      "primitives": [
        {
          "attributes": {
            "NORMAL": 1,
            "POSITION": 0,
            "TANGENT": 2,
            "TEXCOORD_0": 3,
            "TEXCOORD_1": 4,
            "TEXCOORD_2": 5
          },
          "indices": 6,
          "material": 0,
          "mode": 4
        }
      ]
    }
  ],
  "nodes": [
    {
      "children": [
        1
      ],
      "matrix": [
        0.7447369694709778,
        0.0,
        0.0,
        0.0,
        0.0,
        1.6536482615924836e-16,
        -0.7447369694709778,
        0.0,
        0.0,
        0.7447369694709778,
        1.6536482615924836e-16,
        0.0,
        0.0,
        0.0,
        0.0,
        1.0
      ],
      "name": "Sketchfab_model"
    },
    {
      "children": [
        2
      ],
      "matrix": [
        0.009999999776482582,
        0.0,
        0.0,
        0.0,
        0.0,
        0.0,
        0.009999999776482582,
        0.0,
        0.0,
        -0.009999999776482582,
        0.0,
        0.0,
        0.0,
        0.0,
        0.0,
        1.0
      ],
      "name": "55f7c369f2da45eab4fb0348011540be.fbx"
    },
    {
      "children": [
        3
      ],
      "name": "RootNode"
    },
    {
      "children": [
        4
      ],
      "matrix": [
        100.0,
        0.0,
        0.0,
        0.0,
        0.0,
        -1.629206793918314e-05,
        -99.99999999999868,
        0.0,
        0.0,
        99.99999999999868,
        -1.629206793918314e-05,
        0.0,
        0.5962133407592773,
        107.38218688964844,
        -248.97447204589844,
        1.0
      ],
      "name": "FlatBedTrailer"
    },
    {
      "mesh": 0,
      "name": "FlatBedTrailer_TrailerFlatBed_0"
    }
  ],
  "samplers": [
    {
      "magFilter": 9729,
      "minFilter": 9987,
      "wrapS": 10497,
      "wrapT": 10497
    }
  ],
  "scene": 0,
  "scenes": [
    {
      "name": "Sketchfab_Scene",
      "nodes": [
        0
      ]
    }
  ],
  "textures": [
    {
      "sampler": 0,
      "source": 0
    },
    {
      "sampler": 0,
      "source": 1
    },
    {
      "sampler": 0,
      "source": 2
    }
  ]
}
